<svg xmlns="http://www.w3.org/2000/svg" width="135" height="100" viewBox="0 0 135 100">
	<!-- 图表 -->
	<rect x="20" y="60" width="25" height="30" fill="#4318FF"/>
	<rect x="65" y="40" width="25" height="50" fill="#728bff"/>
	<rect x="110" y="20" width="25" height="70" fill="#A48FFF"/>

	<!-- 齿轮 -->
	<g transform="translate(50, 30) scale(2)">
		<circle cx="0" cy="0" r="10" fill="#4318FF"/>
		<path d="M0,-13 L2,-10 L5,-11 L6,-8 L9,-8 L8,-5 L11,-4 L10,-1 L13,0 L10,1 L11,4 L8,5 L9,8 L6,8 L5,11 L2,10 L0,13 L-2,10 L-5,11 L-6,8 L-9,8 L-8,5 L-11,4 L-10,1 L-13,0 L-10,-1 L-11,-4 L-8,-5 L-9,-8 L-6,-8 L-5,-11 L-2,-10 Z" fill="#4318FF"/>
		<circle cx="0" cy="0" r="4" fill="#ffffff"/>
	</g>

</svg>